<?xml version="1.0" encoding="UTF-8" standalone="no"?>
<!-- Created with Inkscape (http://www.inkscape.org/) -->

<svg
   xmlns:dc="http://purl.org/dc/elements/1.1/"
   xmlns:cc="http://creativecommons.org/ns#"
   xmlns:rdf="http://www.w3.org/1999/02/22-rdf-syntax-ns#"
   xmlns:svg="http://www.w3.org/2000/svg"
   xmlns="http://www.w3.org/2000/svg"
   xmlns:sodipodi="http://sodipodi.sourceforge.net/DTD/sodipodi-0.dtd"
   xmlns:inkscape="http://www.inkscape.org/namespaces/inkscape"
   width="176.4771mm"
   height="69.453117mm"
   viewBox="0 0 176.4771 69.453116"
   version="1.1"
   id="svg8"
   inkscape:version="0.92.3 (2405546, 2018-03-11)"
   sodipodi:docname="Axa Est - Vest de umbrire.svg">
  <defs
     id="defs2" />
  <sodipodi:namedview
     id="base"
     pagecolor="#ffffff"
     bordercolor="#666666"
     borderopacity="1.0"
     inkscape:pageopacity="0.0"
     inkscape:pageshadow="2"
     inkscape:zoom="0.35"
     inkscape:cx="-424.35714"
     inkscape:cy="528.92858"
     inkscape:document-units="mm"
     inkscape:current-layer="layer1"
     showgrid="false"
     inkscape:window-width="1920"
     inkscape:window-height="1017"
     inkscape:window-x="-8"
     inkscape:window-y="-8"
     inkscape:window-maximized="1" />
  <metadata
     id="metadata5">
    <rdf:RDF>
      <cc:Work
         rdf:about="">
        <dc:format>image/svg+xml</dc:format>
        <dc:type
           rdf:resource="http://purl.org/dc/dcmitype/StillImage" />
        <dc:title></dc:title>
      </cc:Work>
    </rdf:RDF>
  </metadata>
  <g
     inkscape:label="Layer 1"
     inkscape:groupmode="layer"
     id="layer1"
     transform="translate(-105.09628,-219.3259)">
    <path
       style="fill:#000000;stroke-width:0.26458332"
       d="m 105.09628,259.1731 v -29.60592 l 0.77497,-1.90432 c 1.43556,-3.52759 3.52856,-5.76834 6.89794,-7.3849 l 1.98438,-0.95206 h 78.58125 78.58125 l 1.7198,0.82542 c 0.94588,0.45398 2.22313,1.19693 2.83832,1.651 1.53419,1.13236 3.38356,3.55888 4.05441,5.31969 0.30684,0.80537 0.66743,1.67105 0.80133,1.92374 0.14401,0.27179 0.24344,12.56372 0.24344,30.09635 v 29.63692 h -5.95313 -5.95312 v -5.15937 -5.15938 h -9.525 -9.525 v -7.01146 -7.01146 h 3.43958 3.43958 v -3.83645 -3.83646 h -3.43958 -3.43958 v -3.96875 -3.96875 h -4.8948 -4.89479 v 3.96875 3.96875 h -3.30729 -3.30729 v 3.83646 3.83645 h 3.30729 3.30729 v 7.01146 7.01146 H 219.66086 198.4942 v -9.92187 -9.92188 h -5.02709 -5.02708 v 9.92188 9.92187 H 166.6119 144.78378 v -6.87917 -6.87916 h 3.70417 3.70416 v -3.70417 -3.70416 h -3.57187 -3.57188 v -3.96875 -3.96875 h -4.89479 -4.89479 v 3.96875 3.96875 h -3.43959 -3.43958 v 3.70416 3.70417 h 3.43958 3.43959 v 6.87916 6.87917 h -9.12813 -9.12812 v 5.15938 5.15937 h -5.95313 -5.95312 z m 10.31875,22.85905 v -5.15938 h 8.99583 8.99583 v -5.29167 -5.29166 h -3.30729 -3.30729 v -5.42396 -5.42396 h 3.30729 3.30729 v -3.83646 -3.83645 h 6.61459 6.61458 v 3.83645 3.83646 h 3.43959 3.43958 v 5.42396 5.42396 h -3.43958 -3.43959 v 5.29166 5.29167 h 20.10834 20.10833 v -9.78958 -9.78958 h 6.61458 6.61459 v 9.78958 9.78958 h 19.57916 19.57917 v -5.42396 -5.42396 h -3.30729 -3.30729 v -5.42395 -5.42396 h 3.30729 3.30729 v -3.96875 -3.96875 h 6.48229 6.4823 v 3.96875 3.96875 h 3.43958 3.43958 v 5.42396 5.42395 h -3.43958 -3.43958 v 5.42396 5.42396 h 9.525 9.525 v 5.15938 5.15937 h 4.36562 4.36563 v -28.1177 c 0,-26.3083 -0.0308,-28.22871 -0.4783,-29.84258 -0.81567,-2.94157 -3.12318,-5.84147 -5.70805,-7.17344 -2.61137,-1.34562 2.11853,-1.27076 -80.48282,-1.27383 -69.80781,-0.003 -77.14514,0.0367 -78.43645,0.42019 -3.02038,0.89695 -5.77151,3.33657 -7.2269,6.40859 l -0.83728,1.76731 -0.0718,28.90573 -0.0718,28.90573 h 4.3713 4.3713 z"
       id="path261"
       inkscape:connector-curvature="0" />
  </g>
</svg>
