<?xml version="1.0" encoding="UTF-8" standalone="no"?>
<!-- Created with Inkscape (http://www.inkscape.org/) -->

<svg
   xmlns:dc="http://purl.org/dc/elements/1.1/"
   xmlns:cc="http://creativecommons.org/ns#"
   xmlns:rdf="http://www.w3.org/1999/02/22-rdf-syntax-ns#"
   xmlns:svg="http://www.w3.org/2000/svg"
   xmlns="http://www.w3.org/2000/svg"
   xmlns:sodipodi="http://sodipodi.sourceforge.net/DTD/sodipodi-0.dtd"
   xmlns:inkscape="http://www.inkscape.org/namespaces/inkscape"
   width="257.70416mm"
   height="134.67291mm"
   viewBox="0 0 257.70417 134.67291"
   version="1.1"
   id="svg8"
   inkscape:version="0.92.3 (2405546, 2018-03-11)"
   sodipodi:docname="Baza rotire pe axa X.svg">
  <defs
     id="defs2" />
  <sodipodi:namedview
     id="base"
     pagecolor="#ffffff"
     bordercolor="#666666"
     borderopacity="1.0"
     inkscape:pageopacity="0.0"
     inkscape:pageshadow="2"
     inkscape:zoom="0.35"
     inkscape:cx="-137.57142"
     inkscape:cy="614.57145"
     inkscape:document-units="mm"
     inkscape:current-layer="layer1"
     showgrid="false"
     inkscape:window-width="1920"
     inkscape:window-height="1017"
     inkscape:window-x="-8"
     inkscape:window-y="-8"
     inkscape:window-maximized="1" />
  <metadata
     id="metadata5">
    <rdf:RDF>
      <cc:Work
         rdf:about="">
        <dc:format>image/svg+xml</dc:format>
        <dc:type
           rdf:resource="http://purl.org/dc/dcmitype/StillImage" />
        <dc:title></dc:title>
      </cc:Work>
    </rdf:RDF>
  </metadata>
  <g
     inkscape:label="Layer 1"
     inkscape:groupmode="layer"
     id="layer1"
     transform="translate(-29.217554,-176.76578)">
    <path
       style="fill:#000000;stroke-width:0.26458332"
       d="m 49.53654,306.38847 c -6.215055,-1.735 -10.801417,-6.19337 -12.224747,-11.88359 -0.390869,-1.56263 -0.423635,-6.38497 -0.359546,-52.91619 l 0.07052,-51.19687 0.874169,-1.84614 c 2.251475,-4.75486 6.191497,-7.95966 11.551641,-9.39608 1.972265,-0.52852 2.642924,-0.53174 111.002303,-0.53174 h 109.01807 l 2.04298,0.54748 c 5.89821,1.58061 10.639,6.23164 12.07172,11.84316 0.38644,1.51359 0.42766,6.51835 0.42766,51.92934 0,49.73084 -0.006,50.27529 -0.53918,52.26634 -0.64454,2.40518 -1.03947,3.22639 -2.42604,5.04475 -2.19666,2.88072 -6.008,5.34747 -9.69001,6.27149 -1.51792,0.38093 -11.91474,0.41767 -110.86041,0.39178 C 54.665934,306.8845 51.255754,306.8684 49.536545,306.38847 Z m 220.58413,-1.57109 c 3.83529,-0.95629 6.99589,-2.88358 9.10547,-5.55241 1.26714,-1.60304 1.95474,-3.37386 2.66678,-6.86786 0.53449,-2.6228 0.53967,-3.19513 0.46111,-50.87376 l -0.0795,-48.22111 -0.82355,-2.29441 c -1.00766,-2.80735 -2.32569,-4.8423 -4.2434,-6.55152 -1.62811,-1.45111 -4.43253,-2.95287 -6.82236,-3.65335 -1.50172,-0.44016 -7.41106,-0.46897 -109.35952,-0.53305 -107.349728,-0.0675 -107.780492,-0.0657 -109.934374,0.46668 -6.315818,1.56093 -10.369851,5.17791 -12.008128,10.71356 -0.441306,1.49116 -0.474224,4.51415 -0.542389,49.80862 -0.07126,47.34842 -0.06298,48.26817 0.457254,50.82101 0.682929,3.35119 1.098971,4.49844 2.27243,6.26634 2.175637,3.27773 5.842999,5.5497 10.701187,6.62949 1.132563,0.25173 25.242945,0.32855 108.74375,0.34649 106.34935,0.0228 107.30706,0.0184 109.4052,-0.50472 z m -73.37371,-3.03606 c -2.03427,-1.71173 -0.0329,-4.92758 2.31202,-3.71498 1.44517,0.74732 1.77651,2.268 0.74867,3.43601 -0.91148,1.03578 -2.03913,1.13856 -3.06069,0.27897 z m 2.3784,-0.83468 c 0.60039,-0.54334 0.61511,-1.09521 0.046,-1.7241 -0.78753,-0.87021 -2.47253,-0.36382 -2.47253,0.74307 0,1.30791 1.4276,1.88508 2.42656,0.98103 z m 64.03201,0.83468 c -2.03427,-1.71173 -0.0329,-4.92758 2.31203,-3.71498 1.44517,0.74732 1.77651,2.268 0.74867,3.43601 -0.91148,1.03578 -2.03913,1.13856 -3.0607,0.27897 z m 2.37841,-0.83468 c 0.60039,-0.54334 0.6151,-1.09521 0.046,-1.7241 -0.78754,-0.87021 -2.47254,-0.36382 -2.47254,0.74307 0,1.30791 1.42761,1.88508 2.42657,0.98103 z m -195.644241,-16.69943 -3.106283,-3.1144 1.792883,-1.77914 1.792886,-1.77915 3.163723,3.17199 3.163723,3.17199 -1.706253,1.72155 c -0.93844,0.94686 -1.771086,1.72156 -1.850323,1.72156 -0.07924,0 -1.541899,-1.40148 -3.250356,-3.1144 z m 4.360172,0.81174 c 0.551838,-0.53885 1.003342,-1.10688 1.003342,-1.26228 0,-0.15541 -1.070301,-1.3479 -2.378448,-2.64998 l -2.378446,-2.36743 -1.196493,1.17427 -1.196493,1.17427 2.445234,2.45545 c 1.344879,1.35049 2.502098,2.45544 2.571599,2.45544 0.0695,0 0.577866,-0.44088 1.129705,-0.97974 z m 46.509929,0.31652 -1.70626,-1.72156 3.16373,-3.17198 3.16372,-3.17199 1.79289,1.77914 1.79288,1.77915 -3.10628,3.1144 c -1.70846,1.71292 -3.17112,3.11439 -3.25036,3.11439 -0.0792,0 -0.91188,-0.7747 -1.85032,-1.72155 z m 4.63297,-1.98363 2.37123,-2.38227 -1.19048,-1.19048 -1.19048,-1.19048 -2.50031,2.51075 -2.50031,2.51076 1.03701,1.06199 c 0.57035,0.5841 1.16415,1.062 1.31956,1.062 0.1554,0 1.3496,-1.07202 2.65378,-2.38227 z m -64.767935,-8.73346 c -0.893154,-0.70255 -1.131877,-1.84996 -0.599205,-2.88003 0.81448,-1.57503 2.605651,-1.84188 3.870852,-0.57668 0.985967,0.98597 1.016222,2.07242 0.08842,3.17505 -0.838722,0.99677 -2.295695,1.1189 -3.360067,0.28166 z m 2.568662,-0.76712 c 0.652558,-0.72107 0.448847,-1.89997 -0.411358,-2.38057 -0.624375,-0.34884 -0.769316,-0.34217 -1.389063,0.0639 -0.893969,0.58575 -0.947169,1.81992 -0.103907,2.41056 0.781598,0.54745 1.349248,0.51946 1.904328,-0.0939 z m 68.965433,0.61454 c -2.13712,-1.79827 0.12163,-5.24005 2.59838,-3.95927 1.57503,0.81448 1.84187,2.60565 0.57667,3.87085 -0.98596,0.98596 -2.07242,1.01622 -3.17505,0.0884 z m 2.80213,-1.0653 c 0.40604,-0.6197 0.41272,-0.76474 0.064,-1.38907 -0.53561,-0.95889 -1.87446,-1.09811 -2.46413,-0.25624 -0.53763,0.76757 -0.5336,1.24655 0.0156,1.8534 0.6569,0.72586 1.84026,0.62259 2.38455,-0.20809 z m 5.37655,-7.1164 -1.70761,-1.72292 3.10379,-3.1038 3.1038,-3.10379 1.78307,1.78308 1.78307,1.78307 -3.035,3.04364 c -1.66926,1.67401 -3.09993,3.04365 -3.17926,3.04365 -0.0793,0 -0.91268,-0.77532 -1.85186,-1.72293 z m 4.54256,-1.90414 2.35465,-2.30415 -1.19894,-1.19895 -1.19895,-1.19894 -2.43936,2.43937 -2.43937,2.43936 1.0387,1.06373 c 0.57129,0.58505 1.14893,1.06373 1.28366,1.06373 0.13473,0 1.30455,-1.03687 2.59961,-2.30415 z m -93.969555,0.31884 -3.035008,-3.04364 1.783074,-1.78308 1.783075,-1.78307 3.103794,3.10379 3.103794,3.1038 -1.70761,1.72292 c -0.939185,0.94761 -1.772522,1.72292 -1.85186,1.72292 -0.07934,0 -1.510004,-1.36964 -3.179259,-3.04364 z m 4.337884,0.69176 c 1.224597,-1.25411 1.220562,-1.26427 -1.615111,-4.06688 l -2.077358,-2.05314 -1.173831,1.19605 -1.173831,1.19604 2.367427,2.37845 c 1.302085,1.30815 2.435043,2.37845 2.517685,2.37845 0.08264,0 0.6024,-0.46304 1.155019,-1.02897 z m 87.137031,-48.12293 -3.10628,-3.1144 1.79288,-1.77914 1.79289,-1.77915 3.16372,3.17199 3.16372,3.17199 -1.70625,1.72155 c -0.93844,0.94686 -1.77109,1.72156 -1.85032,1.72156 -0.0792,0 -1.5419,-1.40148 -3.25036,-3.1144 z m 4.36017,0.81174 c 0.55184,-0.53885 1.00334,-1.10688 1.00334,-1.26228 0,-0.15541 -1.0703,-1.3479 -2.37844,-2.64998 l -2.37845,-2.36743 -1.19649,1.17427 -1.1965,1.17427 2.44524,2.45545 c 1.34488,1.35049 2.5021,2.45544 2.5716,2.45544 0.0695,0 0.57786,-0.44088 1.1297,-0.97974 z m -97.423401,0.0519 -1.706253,-1.72155 3.163723,-3.17199 3.163723,-3.17198 1.792885,1.77914 1.792883,1.77915 -3.106283,3.11439 c -1.708456,1.71292 -3.171115,3.1144 -3.250354,3.1144 -0.07924,0 -0.911885,-0.7747 -1.850324,-1.72156 z m 4.632971,-1.98362 2.371231,-2.38228 -1.190478,-1.19047 -1.190479,-1.19048 -2.500313,2.51075 -2.500313,2.51075 1.037011,1.062 c 0.570356,0.5841 1.164158,1.06199 1.31956,1.06199 0.155402,0 1.349603,-1.07202 2.653781,-2.38226 z m 79.1654,-8.46888 c -0.89316,-0.70255 -1.13188,-1.84996 -0.59921,-2.88003 0.81448,-1.57503 2.60565,-1.84188 3.87085,-0.57668 0.98597,0.98597 1.01623,2.07242 0.0884,3.17505 -0.83872,0.99677 -2.29569,1.1189 -3.36006,0.28166 z m 2.56866,-0.76712 c 0.65256,-0.72107 0.44885,-1.89997 -0.41136,-2.38057 -0.62437,-0.34884 -0.76932,-0.34217 -1.38906,0.0639 -0.89397,0.58575 -0.94717,1.81992 -0.10391,2.41056 0.7816,0.54745 1.34925,0.51946 1.90433,-0.0939 z m -74.967899,0.34995 c -2.137124,-1.79827 0.121635,-5.24004 2.598378,-3.95927 1.57503,0.81448 1.841876,2.60565 0.576673,3.87085 -0.985965,0.98597 -2.072421,1.01623 -3.175051,0.0884 z m 2.802131,-1.0653 c 0.40604,-0.61969 0.412721,-0.76474 0.06399,-1.38906 -0.535609,-0.95889 -1.874459,-1.09811 -2.464133,-0.25624 -0.537626,0.76757 -0.533596,1.24655 0.01558,1.85339 0.656897,0.72587 1.840261,0.6226 2.384549,-0.20809 z m 5.376547,-7.11639 -1.70761,-1.72292 3.103795,-3.1038 3.103793,-3.10379 1.783075,1.78307 1.783074,1.78308 -3.035008,3.04364 c -1.669254,1.674 -3.099922,3.04364 -3.17926,3.04364 -0.07934,0 -0.912675,-0.77531 -1.851859,-1.72292 z m 4.542563,-1.90415 2.354651,-2.30415 -1.198943,-1.19894 -1.198944,-1.19894 -2.439368,2.43936 -2.439366,2.43937 1.038701,1.06373 c 0.571286,0.58505 1.148932,1.06373 1.283661,1.06373 0.134726,0 1.304549,-1.03687 2.599608,-2.30416 z m 49.963778,0.58343 -3.03501,-3.04364 1.78307,-1.78308 1.78308,-1.78307 3.10379,3.10379 3.1038,3.1038 -1.70762,1.72292 c -0.93918,0.94761 -1.77252,1.72292 -1.85185,1.72292 -0.0793,0 -1.51001,-1.36964 -3.17926,-3.04364 z m 4.33788,0.69176 c 1.2246,-1.25411 1.22056,-1.26427 -1.61511,-4.06688 l -2.07736,-2.05314 -1.17383,1.19605 -1.17383,1.19604 2.36743,2.37845 c 1.30208,1.30814 2.43504,2.37845 2.51768,2.37845 0.0826,0 0.6024,-0.46304 1.15502,-1.02897 z m 69.00079,-10.48049 c -2.03427,-1.71173 -0.0329,-4.92758 2.31202,-3.71498 1.44517,0.74733 1.77651,2.268 0.74867,3.43601 -0.91148,1.03578 -2.03913,1.13856 -3.06069,0.27897 z m 2.3784,-0.83468 c 0.60039,-0.54334 0.61511,-1.09521 0.046,-1.72409 -0.78753,-0.87022 -2.47253,-0.36383 -2.47253,0.74306 0,1.30791 1.4276,1.88508 2.42656,0.98103 z m 64.03201,0.83468 c -2.03427,-1.71173 -0.0329,-4.92758 2.31203,-3.71498 1.44517,0.74733 1.77651,2.268 0.74867,3.43601 -0.91148,1.03578 -2.03913,1.13856 -3.0607,0.27897 z m 2.37841,-0.83468 c 0.60039,-0.54334 0.6151,-1.09521 0.046,-1.72409 -0.78754,-0.87022 -2.47254,-0.36383 -2.47254,0.74306 0,1.30791 1.42761,1.88508 2.42657,0.98103 z"
       id="path298"
       inkscape:connector-curvature="0" />
  </g>
</svg>
