<?xml version="1.0" encoding="UTF-8" standalone="no"?>
<!-- Created with Inkscape (http://www.inkscape.org/) -->

<svg
   xmlns:dc="http://purl.org/dc/elements/1.1/"
   xmlns:cc="http://creativecommons.org/ns#"
   xmlns:rdf="http://www.w3.org/1999/02/22-rdf-syntax-ns#"
   xmlns:svg="http://www.w3.org/2000/svg"
   xmlns="http://www.w3.org/2000/svg"
   xmlns:sodipodi="http://sodipodi.sourceforge.net/DTD/sodipodi-0.dtd"
   xmlns:inkscape="http://www.inkscape.org/namespaces/inkscape"
   width="283.63333mm"
   height="228.60001mm"
   viewBox="0 0 283.63334 228.6"
   version="1.1"
   id="svg8"
   inkscape:version="0.92.3 (2405546, 2018-03-11)"
   sodipodi:docname="Baza rotire pe axa Y.svg">
  <defs
     id="defs2" />
  <sodipodi:namedview
     id="base"
     pagecolor="#ffffff"
     bordercolor="#666666"
     borderopacity="1.0"
     inkscape:pageopacity="0.0"
     inkscape:pageshadow="2"
     inkscape:zoom="0.35"
     inkscape:cx="-204.42857"
     inkscape:cy="812.28573"
     inkscape:document-units="mm"
     inkscape:current-layer="layer1"
     showgrid="false"
     inkscape:window-width="1920"
     inkscape:window-height="1017"
     inkscape:window-x="-8"
     inkscape:window-y="-8"
     inkscape:window-maximized="1" />
  <metadata
     id="metadata5">
    <rdf:RDF>
      <cc:Work
         rdf:about="">
        <dc:format>image/svg+xml</dc:format>
        <dc:type
           rdf:resource="http://purl.org/dc/dcmitype/StillImage" />
        <dc:title></dc:title>
      </cc:Work>
    </rdf:RDF>
  </metadata>
  <g
     inkscape:label="Layer 1"
     inkscape:groupmode="layer"
     id="layer1"
     transform="translate(-46.906841,-135.15059)">
    <path
       style="fill:#000000;stroke-width:0.26458335"
       d="m 62.914132,358.74183 c -4.512702,-1.28898 -7.557986,-4.09324 -9.312859,-8.5758 l -0.741307,-1.89356 V 275.6244 202.97632 l 1.120124,-2.2605 c 1.786273,-3.60485 5.104369,-6.62169 9.027752,-8.20809 l 1.49379,-0.60401 27.516667,-0.13769 c 27.132341,-0.13577 27.537071,-0.14545 28.977821,-0.69265 3.98191,-1.51234 7.05823,-4.03267 8.51849,-6.97894 1.35449,-2.73287 1.52977,-4.01998 1.52932,-11.23017 l -5.3e-4,-6.62514 3.83687,0.0797 3.83699,0.0797 v -2.9376 -2.93761 l -3.83687,0.0797 -3.83687,0.0797 0.01,-4.10104 c 0.005,-2.25557 0.16985,-4.99898 0.36566,-6.09646 1.05105,-5.89088 6.22879,-10.96232 12.54126,-12.28377 1.63796,-0.34289 4.96324,-0.40519 21.62968,-0.40519 h 19.69416 v 4.7625 4.7625 h 2.91042 2.91042 v -4.7625 -4.7625 h 20.35561 c 17.26044,0 20.64993,0.0616 22.29115,0.40519 6.31247,1.32145 11.49021,6.39289 12.54125,12.28377 0.19581,1.09748 0.36035,3.84089 0.36564,6.09646 l 0.01,4.10104 -4.10142,-0.0791 -4.10142,-0.0791 v 2.92336 2.92335 h 4.23334 4.23333 v 5.91171 c 0,6.66151 0.1875,7.63561 1.99345,10.35639 1.75796,2.64848 4.0942,4.38429 7.79018,5.78803 1.44075,0.5472 1.84548,0.55687 28.97783,0.69264 l 27.51666,0.13769 1.49379,0.60401 c 3.93075,1.58939 7.48458,4.82445 9.27989,8.44753 l 1.13257,2.28565 v 73.8387 73.8387 l -0.74131,1.89356 c -1.81951,4.6477 -5.15445,7.59307 -9.82331,8.67585 -1.5888,0.36847 -14.5647,0.40785 -125.91065,0.3821 -116.383931,-0.0269 -124.238484,-0.057 -125.726808,-0.48215 z m 251.850788,-1.63552 c 4.28604,-1.27644 7.31634,-4.4167 8.39684,-8.70154 0.3084,-1.22302 0.36695,-12.89617 0.36695,-73.1573 0,-67.87786 -0.0251,-71.79381 -0.47011,-73.42188 -1.32839,-4.85961 -4.74115,-8.44233 -9.89213,-10.38473 l -1.54401,-0.58224 -27.51666,-0.13891 -27.51667,-0.13891 -1.49379,-0.60401 c -3.92235,-1.58599 -7.24102,-4.60295 -9.02775,-8.20702 l -1.12013,-2.25943 -0.0882,-5.908 -0.0881,-5.908 h -3.81445 -3.81445 v -4.23333 -4.23334 h 3.70416 3.70417 v -3.64857 c 0,-5.68054 -0.9266,-8.35592 -3.96875,-11.45896 -1.70869,-1.74289 -3.2568,-2.70333 -6.07947,-3.77166 -1.42805,-0.54049 -1.92129,-0.555 -21.76793,-0.6401 l -20.30677,-0.0871 v 4.51152 4.51152 h -4.23333 -4.23333 v -4.51192 -4.51192 l -19.64532,0.0879 c -19.16846,0.0858 -19.68078,0.10136 -21.10646,0.6405 -2.82096,1.06679 -4.37045,2.02796 -6.07947,3.7712 -3.04215,3.10304 -3.96875,5.77842 -3.96875,11.45896 v 3.64857 h 3.43958 3.43958 v 4.23334 4.23333 h -3.43958 -3.43958 v 5.93671 c 0,6.78213 -0.26139,8.4488 -1.77782,11.3359 -1.65685,3.15444 -5.1252,6.18315 -8.76694,7.65567 l -1.49378,0.60401 -27.516671,0.13892 c -27.10988,0.13685 -27.538267,0.14709 -28.977822,0.69264 -2.825311,1.0707 -4.371296,2.03 -6.079469,3.77237 -1.876512,1.91407 -2.904785,3.71982 -3.630934,6.37628 -0.444944,1.62774 -0.470108,5.49417 -0.470108,72.23126 0,76.1658 -0.08046,71.79685 1.375697,74.70251 1.293351,2.58081 4.044993,4.91085 6.971193,5.90308 1.382783,0.46889 4.03019,0.49469 63.752064,0.62149 34.27016,0.0728 90.2192,0.10178 124.33121,0.0645 l 62.02182,-0.0678 z M 72.682136,348.94217 c -0.835471,-0.33798 -1.921186,-1.76634 -2.110769,-2.77691 -0.228907,-1.22017 0.280924,-2.62978 1.24436,-3.44046 3.177053,-2.67331 7.664415,0.7655 5.886904,4.51133 -0.777623,1.63872 -3.173976,2.45304 -5.020495,1.70604 z m 2.662987,-1.32947 c 1.615498,-0.61421 1.694582,-3.29712 0.121171,-4.11076 -1.113639,-0.57589 -1.788033,-0.47805 -2.650639,0.38456 -1.084858,1.08486 -1.069041,2.37038 0.04065,3.30412 0.880021,0.74049 1.41341,0.83095 2.488815,0.42208 z m 226.223177,1.07581 c -2.88709,-1.95771 -1.858,-6.44459 1.56664,-6.83059 3.77268,-0.42524 5.78739,3.80496 3.05772,6.42016 -1.0646,1.01994 -3.41753,1.22878 -4.62436,0.41043 z m 3.55157,-1.49789 c 1.10969,-0.93374 1.12551,-2.21926 0.0407,-3.30412 -0.8626,-0.86261 -1.537,-0.96045 -2.65064,-0.38456 -1.04521,0.5405 -1.43976,1.76697 -0.94745,2.94522 0.63106,1.51033 2.24518,1.84766 3.55744,0.74346 z m -5.53595,-35.16606 v -7.54063 h 4.23333 4.23334 v 7.54063 7.54062 h -4.23334 -4.23333 z m 7.14375,0.13229 v -6.35 h -2.91042 -2.91041 v 6.35 6.35 h 2.91041 2.91042 z M 70.190174,311.62768 v -7.67292 h 4.233333 4.233334 v 7.67292 7.67292 h -4.233334 -4.233333 z m 7.14375,0 v -6.35 h -2.910417 -2.910416 v 6.35 6.35 h 2.910416 2.910417 z M 69.925591,274.8506 v -7.67292 h 4.233333 4.233333 v 7.67292 7.67291 h -4.233333 -4.233333 z m 7.14375,0 v -6.35 h -2.910417 -2.910417 v 6.35 6.35 h 2.910417 2.910417 z m 222.514579,-0.1323 v -7.54062 h 4.23333 4.23334 v 7.54062 7.54063 h -4.23334 -4.23333 z m 7.14375,0.1323 v -6.35 h -2.91042 -2.91041 v 6.35 6.35 h 2.91041 2.91042 z M 170.33496,252.36101 c -12.38555,-0.0953 -17.34598,-0.21846 -17.72708,-0.44025 -0.82696,-0.48127 -1.92284,-1.73495 -2.23212,-2.55354 -0.1748,-0.46264 -0.28142,-3.59836 -0.28142,-8.27672 0,-8.06185 0.09,-8.71127 1.40169,-10.11612 1.34959,-1.44543 -0.74066,-1.36754 36.69831,-1.36754 37.43897,0 35.34872,-0.0779 36.69831,1.36754 1.31232,1.4055 1.40169,2.05217 1.40169,10.14184 0,5.74901 -0.0856,7.76236 -0.35746,8.41315 -0.41398,0.99079 -2.0292,2.49772 -2.88854,2.69489 -0.88634,0.20337 -33.16682,0.28711 -52.71338,0.13675 z m 53.44856,-2.46334 c 1.16445,-1.16446 1.24303,-1.84239 1.14045,-9.83978 -0.0933,-7.27384 -0.16811,-7.6204 -1.83078,-8.48019 -1.11572,-0.57696 -68.68198,-0.57696 -69.7977,0 -1.66267,0.85979 -1.73749,1.20635 -1.83078,8.48019 -0.10258,7.99739 -0.024,8.67532 1.14045,9.83978 l 0.87585,0.87584 h 34.71333 34.71333 z m 75.8004,-12.7502 v -7.54063 h 4.23333 4.23334 v 7.54063 7.54062 h -4.23334 -4.23333 z m 7.14375,0.13229 v -6.35 h -2.91042 -2.91041 v 6.35 6.35 h 2.91041 2.91042 z M 69.661007,236.48601 v -7.67292 h 4.233334 4.233333 v 7.67292 7.67292 h -4.233333 -4.233334 z m 7.14375,0 v -6.35 h -2.910416 -2.910417 v 6.35 6.35 h 2.910417 2.910416 z m -4.417395,-27.75389 c -2.224668,-1.39782 -2.506461,-4.16326 -0.609427,-5.98074 1.086736,-1.04116 3.261763,-1.2422 4.585823,-0.42389 2.178126,1.34615 2.336694,4.22158 0.33588,6.09075 -0.95953,0.8964 -3.133359,1.05463 -4.312276,0.31388 z m 3.078932,-1.20995 c 2.131917,-1.10245 1.15639,-4.37366 -1.304293,-4.37366 -0.270404,0 -0.857966,0.30824 -1.305693,0.68498 -1.109694,0.93374 -1.125511,2.21926 -0.04065,3.30412 0.862606,0.86261 1.537,0.96045 2.650639,0.38456 z m 226.498876,-1.12093 c -0.61702,-0.22556 -1.59971,-1.19519 -2.00951,-1.98282 -0.82032,-1.57663 -0.17647,-3.76729 1.39218,-4.73676 1.32406,-0.81832 3.49908,-0.61727 4.58582,0.42389 1.94792,1.86623 1.55115,4.87321 -0.80371,6.09095 -0.74364,0.38456 -2.3828,0.49059 -3.16478,0.20474 z m 2.93077,-1.90946 c 1.08486,-1.08486 1.06904,-2.37038 -0.0406,-3.30413 -1.31439,-1.10598 -2.92584,-0.76817 -3.55849,0.74596 -1.00552,2.40657 1.77466,4.38265 3.59914,2.55817 z M 183.69642,185.68601 v -5.55625 h 4.23334 4.23333 v 5.55625 5.55625 h -4.23333 -4.23334 z m 7.14375,0 v -4.23333 h -2.91041 -2.91042 v 4.23333 4.23333 h 2.91042 2.91041 z m 3.43959,-13.49375 v -3.70417 h 2.38125 2.38125 v 3.70417 3.70417 h -2.38125 -2.38125 z m 3.43958,0 v -2.38125 h -1.05833 -1.05834 v 2.38125 2.38125 h 1.05834 1.05833 z m -21.43125,-0.52917 v -3.70417 h 2.38125 2.38125 v 3.70417 3.70417 h -2.38125 -2.38125 z m 3.43958,0 v -2.38125 h -1.05833 -1.05833 v 2.38125 2.38125 h 1.05833 1.05833 z m 40.21667,-4.42019 c -0.61702,-0.22555 -1.59971,-1.19519 -2.00951,-1.98282 -0.82032,-1.57662 -0.17647,-3.76728 1.39218,-4.73676 1.32405,-0.81831 3.49908,-0.61726 4.58582,0.4239 1.94792,1.86622 1.55114,4.8732 -0.80371,6.09095 -0.74364,0.38455 -2.3828,0.49059 -3.16478,0.20473 z m 2.93077,-1.90946 c 1.08486,-1.08485 1.06904,-2.37038 -0.0407,-3.30412 -1.31438,-1.10598 -2.92583,-0.76818 -3.55848,0.74596 -1.00553,2.40656 1.77466,4.38264 3.59914,2.55816 z m -69.0766,1.64488 c -0.61703,-0.22556 -1.59972,-1.19519 -2.00952,-1.98282 -0.82032,-1.57663 -0.17646,-3.76729 1.39218,-4.73676 1.32406,-0.81832 3.49909,-0.61727 4.58582,0.42389 1.94793,1.86623 1.55115,4.87321 -0.80371,6.09096 -0.74364,0.38455 -2.38279,0.49059 -3.16477,0.20473 z m 2.93076,-1.90946 c 1.08486,-1.08486 1.06905,-2.37038 -0.0407,-3.30413 -1.31438,-1.10598 -2.92583,-0.76817 -3.55848,0.74596 -1.00553,2.40657 1.77466,4.38265 3.59913,2.55817 z m 19.55882,-9.54535 v -3.70417 h 2.38125 2.38125 v 3.70417 3.70416 h -2.38125 -2.38125 z m 3.43958,0 v -2.38125 h -1.05833 -1.05833 v 2.38125 2.38125 h 1.05833 1.05833 z m 14.55209,0 v -3.70417 h 2.38125 2.38125 v 3.70417 3.70416 h -2.38125 -2.38125 z m 3.43958,0 v -2.38125 h -1.05833 -1.05834 v 2.38125 2.38125 h 1.05834 1.05833 z"
       id="path311"
       inkscape:connector-curvature="0" />
  </g>
</svg>
