<?xml version="1.0" encoding="UTF-8" standalone="no"?>
<!-- Created with Inkscape (http://www.inkscape.org/) -->

<svg
   xmlns:dc="http://purl.org/dc/elements/1.1/"
   xmlns:cc="http://creativecommons.org/ns#"
   xmlns:rdf="http://www.w3.org/1999/02/22-rdf-syntax-ns#"
   xmlns:svg="http://www.w3.org/2000/svg"
   xmlns="http://www.w3.org/2000/svg"
   xmlns:sodipodi="http://sodipodi.sourceforge.net/DTD/sodipodi-0.dtd"
   xmlns:inkscape="http://www.inkscape.org/namespaces/inkscape"
   width="248.44376mm"
   height="66.939583mm"
   viewBox="0 0 248.44376 66.939581"
   version="1.1"
   id="svg8"
   inkscape:version="0.92.3 (2405546, 2018-03-11)"
   sodipodi:docname="Margine de sustinere a bazei si a sistemului de rotire pe Y.svg">
  <defs
     id="defs2" />
  <sodipodi:namedview
     id="base"
     pagecolor="#ffffff"
     bordercolor="#666666"
     borderopacity="1.0"
     inkscape:pageopacity="0.0"
     inkscape:pageshadow="2"
     inkscape:zoom="0.35"
     inkscape:cx="-326.35713"
     inkscape:cy="501.64285"
     inkscape:document-units="mm"
     inkscape:current-layer="layer1"
     showgrid="false"
     inkscape:window-width="1920"
     inkscape:window-height="1017"
     inkscape:window-x="-8"
     inkscape:window-y="-8"
     inkscape:window-maximized="1" />
  <metadata
     id="metadata5">
    <rdf:RDF>
      <cc:Work
         rdf:about="">
        <dc:format>image/svg+xml</dc:format>
        <dc:type
           rdf:resource="http://purl.org/dc/dcmitype/StillImage" />
        <dc:title></dc:title>
      </cc:Work>
    </rdf:RDF>
  </metadata>
  <g
     inkscape:label="Layer 1"
     inkscape:groupmode="layer"
     id="layer1"
     transform="translate(-79.167107,-214.62009)">
    <path
       style="fill:#000000;stroke-width:0.26458335"
       d="m 139.98348,273.67863 v -5.42396 h -15.47813 -15.47812 v -5.95313 -5.95312 h 2.91042 2.91041 v -4.49792 -4.49791 h -2.91041 -2.91042 v -4.63021 -4.63021 h -3.96875 -3.96875 v 4.63021 4.63021 h -2.645836 -2.64583 v 4.49791 4.49792 h 2.64583 2.645836 v 5.82083 5.82084 h -5.159376 -5.15938 v 5.42395 5.42396 h -5.15937 -5.15938 v -24.4303 -24.43031 l 7.87136,-0.96895 c 4.32924,-0.53292 19.479946,-2.39323 33.668226,-4.13402 14.18828,-1.7408 27.28516,-3.40463 29.10417,-3.69742 9.17726,-1.47715 21.1148,-2.70634 33.99896,-3.50081 6.90709,-0.42591 29.92328,-0.42481 36.77708,0.002 12.94668,0.80579 22.56502,1.83014 36.6448,3.90269 4.43838,0.65333 17.2376,2.31457 28.44271,3.69165 11.2051,1.37707 23.91502,2.93954 28.24427,3.47214 l 7.87135,0.96837 v 24.43031 24.4303 h -5.15937 -5.15938 v -5.42395 -5.42396 h -5.15937 -5.15938 v -5.82083 -5.82084 h 2.77813 2.77812 v -4.49791 -4.49792 h -2.77812 -2.77813 v -4.63021 -4.63021 h -3.96875 -3.96875 v 4.63021 4.63021 h -3.04271 -3.0427 v 4.49792 4.49791 h 3.0427 3.04271 v 5.95313 5.95312 h -17.19791 -17.19792 v 5.55625 5.55625 h -9.78959 -9.78958 v -5.55625 -5.55625 h -15.74271 -15.74271 v 5.55625 5.55625 h -9.26041 -9.26042 v -5.42396 -5.42395 h -15.74271 -15.74271 v 5.42395 5.42396 h -9.525 -9.525 v -5.42396 z m 17.72708,-1.32292 v -5.42396 h 17.06563 17.06562 v 5.42396 5.42396 h 7.93751 7.9375 v -5.55625 -5.55625 h 17.06562 17.06563 v 5.55625 5.55625 h 8.46666 8.46667 v -5.55625 -5.55625 h 17.19792 17.19792 v -4.63021 -4.63021 h -3.04271 -3.04271 v -5.82083 -5.82083 h 3.04271 3.04271 v -4.63021 -4.63021 h 5.15312 5.15313 l 0.0724,4.56406 0.0724,4.56406 2.71198,0.0754 2.71198,0.0754 v 5.81157 5.81158 h -2.77813 -2.77812 v 4.49792 4.49792 h 5.29166 5.29167 v 5.42395 5.42396 h 3.83646 3.83646 v -23.146 -23.146 l -0.59532,-0.12979 c -0.32742,-0.0714 -6.96515,-0.90814 -14.75052,-1.85946 -34.99837,-4.27654 -40.55153,-4.98068 -48.02187,-6.08917 -16.97925,-2.51947 -25.34729,-3.34519 -41.80417,-4.12503 -11.40309,-0.54036 -32.47328,-0.0197 -43.52396,1.07547 -8.7817,0.87032 -13.76345,1.45693 -19.31459,2.27433 -5.79402,0.85316 -22.40201,2.94391 -56.620836,7.12788 -7.78536,0.95192 -14.4231,1.78918 -14.75052,1.86056 l -0.59531,0.12979 v 23.14601 23.146 h 3.83646 3.83646 v -5.42396 -5.42396 h 5.29166 5.291666 v -4.49792 -4.49791 h -2.645826 -2.64584 v -5.81126 -5.81125 l 2.57969,-0.0757 2.57969,-0.0757 0.0724,-4.56406 0.0724,-4.56407 h 5.15313 5.15312 v 4.63021 4.63021 h 2.91042 2.91042 v 5.82083 5.82084 h -2.91042 -2.91042 v 4.6302 4.63021 h 15.47813 15.47813 v 5.42396 5.42396 h 8.20208 8.20208 z m 41.1296,-40.97137 c -2.48616,-1.12707 -3.4264,-4.55506 -1.87448,-6.83407 0.9636,-1.41506 1.85932,-1.90252 3.67638,-2.00074 1.34967,-0.0729 1.84286,0.0223 2.70374,0.5222 2.81971,1.63738 3.01529,6.01606 0.35337,7.91151 -1.04865,0.7467 -3.62716,0.95956 -4.85901,0.4011 z m 4.05765,-1.43595 c 0.82529,-0.54075 1.37942,-1.68018 1.37942,-2.83643 0,-1.99977 -1.38747,-3.39548 -3.37541,-3.39548 -1.38708,0 -2.38597,0.66256 -3.06802,2.035 -1.51326,3.04504 2.16698,6.09512 5.06401,4.19691 z m -23.51933,-1.16642 c -0.65718,-0.22251 -1.295,-1.1639 -1.295,-1.91136 0,-0.19181 0.24677,-0.66246 0.54837,-1.04588 1.42806,-1.81548 4.25698,0.1557 3.16138,2.20284 -0.35557,0.66438 -1.56482,1.04217 -2.41475,0.7544 z m 1.35083,-1.83061 c 0,-0.32705 -0.18651,-0.50086 -0.53746,-0.50086 -0.63977,0 -1.00886,0.75674 -0.51727,1.06056 0.50316,0.31097 1.05473,0.0183 1.05473,-0.5597 z m 40.13586,1.85099 c -1.65143,-0.96071 -0.69431,-3.67476 1.29591,-3.67476 0.68696,0 1.69532,1.2404 1.69532,2.08543 0,1.3801 -1.75134,2.31063 -2.99123,1.58933 z m 1.61868,-1.62808 c 0.1053,-0.54678 -0.6585,-0.91522 -1.06162,-0.5121 -0.40312,0.40312 -0.0347,1.16692 0.5121,1.06162 0.25343,-0.0488 0.50072,-0.29609 0.54952,-0.54952 z"
       id="path324"
       inkscape:connector-curvature="0" />
  </g>
</svg>
