<?xml version="1.0" encoding="UTF-8" standalone="no"?>
<!-- Created with Inkscape (http://www.inkscape.org/) -->

<svg
   xmlns:dc="http://purl.org/dc/elements/1.1/"
   xmlns:cc="http://creativecommons.org/ns#"
   xmlns:rdf="http://www.w3.org/1999/02/22-rdf-syntax-ns#"
   xmlns:svg="http://www.w3.org/2000/svg"
   xmlns="http://www.w3.org/2000/svg"
   xmlns:sodipodi="http://sodipodi.sourceforge.net/DTD/sodipodi-0.dtd"
   xmlns:inkscape="http://www.inkscape.org/namespaces/inkscape"
   width="274.90207mm"
   height="77.522919mm"
   viewBox="0 0 274.90207 77.522917"
   version="1.1"
   id="svg8"
   inkscape:version="0.92.3 (2405546, 2018-03-11)"
   sodipodi:docname="Margini de prindere intre  suporturile de rotire pe axa X si Y.svg">
  <defs
     id="defs2" />
  <sodipodi:namedview
     id="base"
     pagecolor="#ffffff"
     bordercolor="#666666"
     borderopacity="1.0"
     inkscape:pageopacity="0.0"
     inkscape:pageshadow="2"
     inkscape:zoom="0.35"
     inkscape:cx="-101.14286"
     inkscape:cy="-111.85714"
     inkscape:document-units="mm"
     inkscape:current-layer="layer1"
     showgrid="false"
     inkscape:window-width="1920"
     inkscape:window-height="1017"
     inkscape:window-x="-8"
     inkscape:window-y="-8"
     inkscape:window-maximized="1" />
  <metadata
     id="metadata5">
    <rdf:RDF>
      <cc:Work
         rdf:about="">
        <dc:format>image/svg+xml</dc:format>
        <dc:type
           rdf:resource="http://purl.org/dc/dcmitype/StillImage" />
        <dc:title></dc:title>
      </cc:Work>
    </rdf:RDF>
  </metadata>
  <g
     inkscape:label="Layer 1"
     inkscape:groupmode="layer"
     id="layer1"
     transform="translate(-19.579166,-41.714882)">
    <path
       style="fill:#000000;stroke-width:0.26458332"
       d="m 94.21057,112.22635 v -8.46667 H 63.414485 c -30.10317,0 -30.834842,-0.012 -32.518484,-0.532 -3.101786,-0.95804 -5.965852,-3.500385 -7.434313,-6.599215 l -0.820906,-1.73233 v -20.51089 -20.51089 l 0.87308,-1.77336 c 1.790252,-3.63627 5.150995,-6.20599 8.916503,-6.81781 2.174296,-0.35329 249.973615,-0.35329 252.147905,0 3.86226,0.62754 7.12627,3.17993 9.05346,7.0796 l 1.00071,2.02495 v 19.98962 19.98962 l -0.61325,1.5185 c -1.29482,3.20612 -3.94483,5.945015 -6.91616,7.148145 l -1.46642,0.59377 -27.31823,0.071 -27.31823,0.071 v 8.46185 8.46185 h -4.7625 -4.7625 v -8.49803 -8.49802 l -5.15937,0.1061 -5.15938,0.1061 v -6.027865 -6.02787 h 2.91042 2.91042 v -4.49791 -4.49792 h -2.91042 -2.91042 v -4.63021 -4.63021 h -3.96875 -3.96875 v 4.63021 4.63021 h -2.77812 -2.77813 v 4.49792 4.49791 h 2.77813 2.77812 v 5.95096 5.950955 l -15.14739,0.0683 -15.1474,0.0683 -0.0699,8.40052 -0.0699,8.40052 h -21.16295 -21.16295 v -8.49949 -8.49948 l -4.7625,0.11241 -4.7625,0.1124 v -6.032705 -6.03272 h 2.91042 2.91041 v -4.49791 -4.49792 h -2.91041 -2.91042 v -4.63021 -4.63021 h -3.96875 -3.96875 v 4.63021 4.63021 h -2.77812 -2.77813 v 4.49792 4.49791 h 2.77813 2.77812 v 5.95313 5.953125 h -4.63021 -4.63021 v 8.46667 8.46666 h -4.7625 -4.7625 z m 8.46666,-1.19063 v -8.33437 h 4.63022 4.63021 v -4.762505 -4.7625 h -2.77813 -2.77812 v -5.81158 -5.81157 l 2.71198,-0.0754 2.71198,-0.0754 0.0724,-4.56407 0.0724,-4.56406 h 5.15313 5.15313 v 4.63021 4.63021 h 2.91041 2.91042 v 5.82083 5.82084 h -2.91042 -2.91041 v 4.7625 4.762495 h 4.7625 4.7625 v 8.33437 8.33438 h 19.84375 19.84375 v -8.33438 -8.33437 h 15.34583 15.34583 v -4.762495 -4.7625 h -2.77812 -2.77813 v -5.81158 -5.81158 l 2.71198,-0.0754 2.71198,-0.0754 0.0724,-4.56406 0.0724,-4.56406 h 5.15312 5.15313 v 4.63021 4.6302 h 2.91042 2.91041 v 5.82084 5.82083 h -2.91041 -2.91042 v 4.7625 4.762505 h 5.15937 5.15938 v 8.33437 8.33438 h 3.43958 3.43959 V 111.04505 102.72 l 27.45052,-0.0791 c 30.61165,-0.0883 28.58928,0.037 31.47287,-1.94903 1.76657,-1.216675 3.31213,-3.133795 4.10213,-5.088225 l 0.60676,-1.5012 0.0756,-18.91771 0.0756,-18.91771 -0.67334,-2.11666 c -0.37031,-1.16417 -1.00163,-2.58736 -1.40293,-3.16264 -1.03351,-1.48165 -3.1873,-3.15739 -4.99552,-3.88668 l -1.54614,-0.6236 H 158.50432 32.165782 l -1.546138,0.6236 c -2.95557,1.19205 -5.159989,3.47154 -6.305439,6.52015 -0.593541,1.57971 -0.596906,1.67436 -0.685824,19.2912 -0.05001,9.90932 0.01893,18.59943 0.156605,19.7382 0.35669,2.9504 1.358868,4.995 3.31683,6.76686 1.998679,1.808695 3.752227,2.670535 6.122299,3.008985 1.145947,0.16364 13.377232,0.26648 32.080728,0.26972 l 30.228644,0.005 v 8.33437 8.33438 h 3.571875 3.571868 z M 33.62099,74.787805 v -21.29896 h 5.159375 5.159375 v 21.29896 21.29896 H 38.780365 33.62099 Z m 8.995833,0 v -19.97604 h -3.96875 -3.96875 v 19.97604 19.97604 h 3.96875 3.96875 z m 209.549997,0 v -21.29896 h 5.15937 5.15938 v 21.29896 21.29896 h -5.15938 -5.15937 z m 8.99583,0 v -19.97604 h -3.96875 -3.96875 v 19.97604 19.97604 h 3.96875 3.96875 z m 18.78542,-0.26458 v -21.29896 h 5.15937 5.15938 v 21.29896 21.29895 h -5.15938 -5.15937 z m 9.26041,0.13229 v -20.10834 h -3.96875 -3.96875 v 19.96897 19.96897 l 3.90261,0.0809 c 2.14643,0.0445 3.93237,0.10719 3.96875,0.13937 0.0364,0.0322 0.0661,-8.99025 0.0661,-20.04983 z"
       id="path350"
       inkscape:connector-curvature="0" />
  </g>
</svg>
