<?xml version="1.0" encoding="UTF-8" standalone="no"?>
<!-- Created with Inkscape (http://www.inkscape.org/) -->

<svg
   xmlns:dc="http://purl.org/dc/elements/1.1/"
   xmlns:cc="http://creativecommons.org/ns#"
   xmlns:rdf="http://www.w3.org/1999/02/22-rdf-syntax-ns#"
   xmlns:svg="http://www.w3.org/2000/svg"
   xmlns="http://www.w3.org/2000/svg"
   xmlns:sodipodi="http://sodipodi.sourceforge.net/DTD/sodipodi-0.dtd"
   xmlns:inkscape="http://www.inkscape.org/namespaces/inkscape"
   width="47.625mm"
   height="68.262497mm"
   viewBox="0 0 47.625 68.262495"
   version="1.1"
   id="svg8"
   inkscape:version="0.92.3 (2405546, 2018-03-11)"
   sodipodi:docname="Picior suport rotire pe axa X - Sistem de prindere.svg">
  <defs
     id="defs2" />
  <sodipodi:namedview
     id="base"
     pagecolor="#ffffff"
     bordercolor="#666666"
     borderopacity="1.0"
     inkscape:pageopacity="0.0"
     inkscape:pageshadow="2"
     inkscape:zoom="0.35"
     inkscape:cx="-791.14285"
     inkscape:cy="505.71427"
     inkscape:document-units="mm"
     inkscape:current-layer="layer1"
     showgrid="false"
     inkscape:window-width="1920"
     inkscape:window-height="1017"
     inkscape:window-x="-8"
     inkscape:window-y="-8"
     inkscape:window-maximized="1" />
  <metadata
     id="metadata5">
    <rdf:RDF>
      <cc:Work
         rdf:about="">
        <dc:format>image/svg+xml</dc:format>
        <dc:type
           rdf:resource="http://purl.org/dc/dcmitype/StillImage" />
        <dc:title></dc:title>
      </cc:Work>
    </rdf:RDF>
  </metadata>
  <g
     inkscape:label="Layer 1"
     inkscape:groupmode="layer"
     id="layer1"
     transform="translate(-202.14166,-214.3744)">
    <path
       style="fill:#000000;stroke-width:0.26458332"
       d="m 204.7119,276.62789 v -5.17746 l 4.63021,-10.16151 4.63021,-10.16151 v -9.39957 -9.39957 h 1.5875 1.5875 v -2.91042 -2.91042 h -1.48075 -1.48075 l 0.0972,-2.44739 c 0.11257,-2.8352 0.56563,-3.99575 2.19736,-5.62871 0.58511,-0.58556 1.65915,-1.35946 2.38675,-1.71979 1.31428,-0.65087 1.37215,-0.65515 8.86354,-0.65515 7.49139,0 7.54927,0.004 8.86355,0.65515 0.7276,0.36033 1.80164,1.13423 2.38675,1.71979 1.63172,1.63296 2.08478,2.79351 2.19736,5.62871 l 0.0972,2.44739 h -1.48074 -1.48075 v 2.77813 2.77812 h 1.71979 1.71979 v 9.56547 9.56547 l 4.49792,10.00397 4.49791,10.00397 v 5.30139 5.3014 h -4.89479 -4.89479 v -5.02709 -5.02708 h -5.29167 -5.29166 v -3.69154 -3.69154 l 1.65364,-0.0788 1.65365,-0.0788 v -2.64584 -2.64583 h -1.65413 -1.65413 l 5.3e-4,-2.71198 4.4e-4,-2.71198 h -2.51355 -2.51354 l 4.8e-4,2.71198 4.8e-4,2.71198 -1.58799,-0.0897 -1.58797,-0.0896 v 2.80162 2.80163 h 1.5875 1.5875 v 3.73133 3.73133 l -5.35781,-0.0933 -5.35781,-0.0933 0.0864,5.09323 0.0864,5.09323 h -5.04731 -5.04732 z m 9.21489,-0.63848 -0.0868,-5.02219 5.42396,-0.071 5.42396,-0.071 v -2.77813 -2.77812 l -1.65365,-0.0788 -1.65365,-0.0788 v -3.41434 -3.41433 l 1.65365,-0.0788 1.65365,-0.0788 0.0754,-2.71198 0.0754,-2.71198 h 3.02419 3.0242 l 0.0754,2.71198 0.0754,2.71198 1.65365,0.0788 1.65365,0.0788 v 3.41433 3.41434 l -1.65365,0.0788 -1.65365,0.0788 v 2.77812 2.77813 l 5.35782,0.0716 5.35781,0.0716 v 5.0216 5.02161 h 4.10104 4.10104 v -4.84139 -4.8414 l -4.49791,-9.98993 -4.49792,-9.98994 v -9.24575 -9.24576 h -1.71979 -1.71979 v -3.57187 -3.57188 h 1.49143 1.49143 l -0.13404,-1.66984 c -0.23468,-2.92371 -1.57262,-5.04363 -4.00388,-6.34402 -1.05533,-0.56446 -1.35981,-0.5851 -8.63453,-0.5851 -7.27471,0 -7.5792,0.0206 -8.63453,0.5851 -2.43126,1.30039 -3.76919,3.42031 -4.00388,6.34402 l -0.13404,1.66984 h 1.49144 1.49143 v 3.70417 3.70417 h -1.5875 -1.5875 v 9.08696 9.08696 l -4.63021,10.15913 -4.63021,10.15912 v 4.69871 4.6987 h 4.25395 4.25395 z m 12.51007,-44.82412 c -0.83679,-0.4638 -1.33115,-1.40212 -1.34266,-2.54847 -0.0255,-2.53478 3.07203,-3.76342 4.80934,-1.90765 0.90312,0.96469 1.10285,1.73405 0.73752,2.84099 -0.57784,1.75088 -2.575,2.51813 -4.2042,1.61513 z m 2.87456,-0.94696 c 0.68751,-0.68751 0.9171,-1.6757 0.54909,-2.36334 -1.10665,-2.06778 -3.98194,-1.43447 -3.98194,0.87707 0,1.71619 2.2352,2.68392 3.43285,1.48627 z"
       id="path363"
       inkscape:connector-curvature="0" />
  </g>
</svg>
