<?xml version="1.0" encoding="UTF-8" standalone="no"?>
<!-- Created with Inkscape (http://www.inkscape.org/) -->

<svg
   xmlns:dc="http://purl.org/dc/elements/1.1/"
   xmlns:cc="http://creativecommons.org/ns#"
   xmlns:rdf="http://www.w3.org/1999/02/22-rdf-syntax-ns#"
   xmlns:svg="http://www.w3.org/2000/svg"
   xmlns="http://www.w3.org/2000/svg"
   xmlns:sodipodi="http://sodipodi.sourceforge.net/DTD/sodipodi-0.dtd"
   xmlns:inkscape="http://www.inkscape.org/namespaces/inkscape"
   width="77.522919mm"
   height="130.96875mm"
   viewBox="0 0 77.522918 130.96875"
   version="1.1"
   id="svg8"
   inkscape:version="0.92.3 (2405546, 2018-03-11)"
   sodipodi:docname="Suport rotire pe axa Y - Sistem de rotire.svg">
  <defs
     id="defs2" />
  <sodipodi:namedview
     id="base"
     pagecolor="#ffffff"
     bordercolor="#666666"
     borderopacity="1.0"
     inkscape:pageopacity="0.0"
     inkscape:pageshadow="2"
     inkscape:zoom="0.35"
     inkscape:cx="-622.64287"
     inkscape:cy="643.42857"
     inkscape:document-units="mm"
     inkscape:current-layer="layer1"
     showgrid="false"
     inkscape:window-width="1920"
     inkscape:window-height="1017"
     inkscape:window-x="-8"
     inkscape:window-y="-8"
     inkscape:window-maximized="1" />
  <metadata
     id="metadata5">
    <rdf:RDF>
      <cc:Work
         rdf:about="">
        <dc:format>image/svg+xml</dc:format>
        <dc:type
           rdf:resource="http://purl.org/dc/dcmitype/StillImage" />
        <dc:title></dc:title>
      </cc:Work>
    </rdf:RDF>
  </metadata>
  <g
     inkscape:label="Layer 1"
     inkscape:groupmode="layer"
     id="layer1"
     transform="translate(-157.55937,-188.10506)">
    <path
       style="fill:#000000;stroke-width:0.26458335"
       d="m 170.54286,312.59153 v -6.08541 h -5.29167 -5.29167 v -13.75834 -13.75833 h 5.68855 5.68854 v -5.82083 -5.82084 h -5.68854 -5.68855 l 3.7e-4,-21.89427 c 3.8e-4,-23.32309 0.01,-23.51998 1.32654,-28.32027 3.60785,-13.15071 14.42703,-23.22185 28.12343,-26.17897 1.67672,-0.36201 3.36531,-0.46595 7.45904,-0.45912 4.82735,0.008 5.53646,0.0703 8.08145,0.70937 1.53439,0.3853 3.59014,1.0018 4.56835,1.36999 8.55788,3.22118 15.89513,9.8439 19.96436,18.02015 1.7128,3.44153 2.53497,5.93884 3.32466,10.09861 0.17039,0.89758 0.39894,1.72109 0.50789,1.83004 0.10894,0.10895 0.19808,10.23902 0.19808,22.51128 v 22.31319 h -5.82083 -5.82083 v 5.82084 5.82083 h 5.82083 5.82083 v 13.75833 13.75834 h -5.02708 -5.02708 v 6.08541 6.08542 h -26.45834 -26.45833 z m 51.32917,-1.5875 v -6.08541 h 4.89479 4.89479 v -12.17084 -12.17083 h -5.68854 -5.68854 v -7.40833 -7.40834 h 5.68854 5.68854 v -21.40212 c 0,-20.21924 -0.0286,-21.54136 -0.51833,-23.92122 -1.55762,-7.57016 -4.75974,-13.43141 -10.20109,-18.67238 -4.93302,-4.75134 -10.39928,-7.67077 -17.19412,-9.18306 -2.98394,-0.66412 -9.33996,-0.79421 -12.60241,-0.25793 -7.45956,1.22619 -13.92907,4.55673 -19.28152,9.92622 -4.85456,4.87001 -7.75053,10.04709 -9.47811,16.94383 l -0.6959,2.77812 -0.076,21.89427 -0.076,21.89427 h 5.69302 5.69303 v 7.40834 7.40833 h -5.68854 -5.68855 v 12.17083 12.17084 h 5.29167 5.29167 v 6.08541 6.08542 h 24.87083 24.87084 z m -27.16511,-51.45028 c -1.64969,-0.7176 -1.96408,-2.80512 -0.59584,-3.95641 1.10263,-0.9278 2.18908,-0.89754 3.17505,0.0884 1.30821,1.30822 0.97258,3.18262 -0.69461,3.87921 -1.05276,0.43987 -0.84474,0.44111 -1.8846,-0.0112 z m 1.6773,-1.88377 c 0.21231,-0.55327 -0.49381,-1.23491 -1.05585,-1.01924 -0.44232,0.16974 -0.60263,0.92507 -0.26746,1.26024 0.32973,0.32973 1.1625,0.17806 1.32331,-0.241 z m -11.28928,-25.77636 v -21.43125 h 10.98021 10.98021 v 21.43125 21.43125 h -10.98021 -10.98021 z m 20.37292,0.13229 v -19.71146 h -9.39271 -9.39271 v 19.71146 19.71146 h 9.39271 9.39271 z m -11.12651,-25.15033 c -0.93143,-0.99146 -0.88425,-2.60534 0.10092,-3.45275 1.27825,-1.0995 2.99545,-0.76873 3.76834,0.72588 0.49498,0.95719 0.32598,1.94295 -0.4814,2.80793 -0.8108,0.86863 -2.53442,0.82739 -3.38786,-0.0811 z m 2.50381,-1.34154 c 0.18531,-0.48291 -0.26334,-1.15709 -0.77001,-1.15709 -0.50667,0 -0.95532,0.67418 -0.77001,1.15709 0.0908,0.23673 0.43735,0.43041 0.77001,0.43041 0.33266,0 0.67917,-0.19368 0.77001,-0.43041 z"
       id="path417"
       inkscape:connector-curvature="0" />
  </g>
</svg>
