<?xml version="1.0" encoding="UTF-8" standalone="no"?>
<!-- Created with Inkscape (http://www.inkscape.org/) -->

<svg
   xmlns:dc="http://purl.org/dc/elements/1.1/"
   xmlns:cc="http://creativecommons.org/ns#"
   xmlns:rdf="http://www.w3.org/1999/02/22-rdf-syntax-ns#"
   xmlns:svg="http://www.w3.org/2000/svg"
   xmlns="http://www.w3.org/2000/svg"
   xmlns:sodipodi="http://sodipodi.sourceforge.net/DTD/sodipodi-0.dtd"
   xmlns:inkscape="http://www.inkscape.org/namespaces/inkscape"
   width="77.522919mm"
   height="130.96875mm"
   viewBox="0 0 77.522918 130.96875"
   version="1.1"
   id="svg8"
   inkscape:version="0.92.3 (2405546, 2018-03-11)"
   sodipodi:docname="Suport rotire pe axa Y - Sistem de prindere.svg">
  <defs
     id="defs2" />
  <sodipodi:namedview
     id="base"
     pagecolor="#ffffff"
     bordercolor="#666666"
     borderopacity="1.0"
     inkscape:pageopacity="0.0"
     inkscape:pageshadow="2"
     inkscape:zoom="0.35"
     inkscape:cx="-622.64287"
     inkscape:cy="643.42857"
     inkscape:document-units="mm"
     inkscape:current-layer="layer1"
     showgrid="false"
     inkscape:window-width="1920"
     inkscape:window-height="1017"
     inkscape:window-x="-8"
     inkscape:window-y="-8"
     inkscape:window-maximized="1" />
  <metadata
     id="metadata5">
    <rdf:RDF>
      <cc:Work
         rdf:about="">
        <dc:format>image/svg+xml</dc:format>
        <dc:type
           rdf:resource="http://purl.org/dc/dcmitype/StillImage" />
        <dc:title></dc:title>
      </cc:Work>
    </rdf:RDF>
  </metadata>
  <g
     inkscape:label="Layer 1"
     inkscape:groupmode="layer"
     id="layer1"
     transform="translate(-157.55937,-188.10506)">
    <path
       style="fill:#000000;stroke-width:0.26458335"
       d="m 170.75074,309.85119 v -6.08541 h -5.29167 -5.29167 v -13.75834 -13.75833 h 5.68855 5.68854 v -5.82083 -5.82084 h -5.68854 -5.68855 l 3.7e-4,-21.89427 c 3.8e-4,-23.32309 0.01,-23.51998 1.32654,-28.32027 3.60785,-13.15071 14.42703,-23.22185 28.12343,-26.17897 1.67672,-0.36201 3.36531,-0.46595 7.45904,-0.45912 4.82735,0.008 5.53646,0.0703 8.08145,0.70937 1.53439,0.3853 3.59014,1.0018 4.56835,1.36999 8.55788,3.22118 15.89513,9.8439 19.96436,18.02015 1.7128,3.44153 2.53497,5.93884 3.32466,10.09861 0.17039,0.89758 0.39894,1.72109 0.50789,1.83004 0.10894,0.10895 0.19808,10.23902 0.19808,22.51128 v 22.31319 h -5.82083 -5.82083 v 5.82084 5.82083 h 5.82083 5.82083 v 13.75833 13.75834 h -5.02708 -5.02708 v 6.08541 6.08542 h -26.45834 -26.45833 z m 51.32917,-1.5875 v -6.08541 h 4.89479 4.89479 v -12.17084 -12.17083 h -5.68854 -5.68854 v -7.40833 -7.40834 h 5.68854 5.68854 v -21.40212 c 0,-20.21924 -0.0286,-21.54136 -0.51833,-23.92122 -1.55762,-7.57016 -4.75974,-13.43141 -10.20109,-18.67238 -4.93302,-4.75134 -10.39928,-7.67077 -17.19412,-9.18306 -2.98394,-0.66412 -9.33996,-0.79421 -12.60241,-0.25793 -7.45956,1.22619 -13.92907,4.55673 -19.28152,9.92622 -4.85456,4.87001 -7.75053,10.04709 -9.47811,16.94383 l -0.6959,2.77812 -0.076,21.89427 -0.076,21.89427 h 5.69302 5.69303 v 7.40834 7.40833 h -5.68854 -5.68855 v 12.17083 12.17084 h 5.29167 5.29167 v 6.08541 6.08542 h 24.87083 24.87084 z m -27.97926,-82.84222 c -2.11618,-1.0475 -3.24528,-2.95061 -3.23577,-5.45397 0.007,-1.87624 0.64291,-3.36434 1.91434,-4.48067 1.26147,-1.10759 2.55253,-1.4949 4.55747,-1.36724 1.99009,0.12672 3.46037,0.97592 4.5559,2.63137 0.8438,1.27507 1.13034,3.80861 0.6093,5.38738 -0.43289,1.31165 -1.74836,2.75899 -3.04159,3.34649 -1.48899,0.67644 -3.92322,0.64766 -5.35965,-0.0634 z m 4.91131,-2.11283 c 0.97903,-0.60033 1.68079,-1.96656 1.68079,-3.27225 0,-2.28214 -1.59377,-3.84908 -3.91178,-3.84595 -2.29606,0.003 -3.80175,1.52184 -3.80175,3.83471 0,3.18199 3.28366,4.96922 6.03274,3.28349 z"
       id="path404"
       inkscape:connector-curvature="0" />
  </g>
</svg>
