<?xml version="1.0" encoding="UTF-8" standalone="no"?>
<!-- Created with Inkscape (http://www.inkscape.org/) -->

<svg
   xmlns:dc="http://purl.org/dc/elements/1.1/"
   xmlns:cc="http://creativecommons.org/ns#"
   xmlns:rdf="http://www.w3.org/1999/02/22-rdf-syntax-ns#"
   xmlns:svg="http://www.w3.org/2000/svg"
   xmlns="http://www.w3.org/2000/svg"
   xmlns:sodipodi="http://sodipodi.sourceforge.net/DTD/sodipodi-0.dtd"
   xmlns:inkscape="http://www.inkscape.org/namespaces/inkscape"
   width="233.89166mm"
   height="224.63126mm"
   viewBox="0 0 233.89166 224.63125"
   version="1.1"
   id="svg8"
   inkscape:version="0.92.3 (2405546, 2018-03-11)"
   sodipodi:docname="Suport rotire pe axa X - Sistem de prindere.svg">
  <defs
     id="defs2" />
  <sodipodi:namedview
     id="base"
     pagecolor="#ffffff"
     bordercolor="#666666"
     borderopacity="1.0"
     inkscape:pageopacity="0.0"
     inkscape:pageshadow="2"
     inkscape:zoom="0.35"
     inkscape:cx="-412.00001"
     inkscape:cy="821.64285"
     inkscape:document-units="mm"
     inkscape:current-layer="layer1"
     showgrid="false"
     inkscape:window-width="1920"
     inkscape:window-height="1017"
     inkscape:window-x="-8"
     inkscape:window-y="-8"
     inkscape:window-maximized="1" />
  <metadata
     id="metadata5">
    <rdf:RDF>
      <cc:Work
         rdf:about="">
        <dc:format>image/svg+xml</dc:format>
        <dc:type
           rdf:resource="http://purl.org/dc/dcmitype/StillImage" />
        <dc:title></dc:title>
      </cc:Work>
    </rdf:RDF>
  </metadata>
  <g
     inkscape:label="Layer 1"
     inkscape:groupmode="layer"
     id="layer1"
     transform="translate(-101.82678,-141.59508)">
    <path
       style="fill:#000000;stroke-width:0.26458335"
       d="m 210.82002,365.14846 c -37.82303,-2.56735 -72.06827,-24.60913 -90.31117,-58.12834 -13.49172,-24.78945 -17.0334,-54.33158 -9.80063,-81.74962 9.83501,-37.28264 38.91108,-67.40821 75.53355,-78.25992 1.81191,-0.5369 3.79485,-1.13829 4.40654,-1.33643 1.71089,-0.5542 9.89197,-2.13927 13.43993,-2.60396 1.74625,-0.22872 5.70507,-0.55903 8.79739,-0.73404 11.90802,-0.67392 24.32185,0.73013 36.04948,4.07733 11.83698,3.3784 22.05996,8.14759 32.30918,15.07278 6.00051,4.05442 10.49513,7.79709 16.12696,13.42893 6.8868,6.88678 11.98812,13.32033 16.619,20.95905 9.1742,15.13303 14.51567,31.92261 15.92146,50.04517 0.39791,5.1297 0.19519,15.21698 -0.41051,20.42672 -2.43686,20.95969 -10.72566,40.86072 -23.85814,57.28229 -5.51072,6.8909 -13.57497,14.61068 -20.9892,20.09264 -20.98459,15.51563 -47.5117,23.21409 -73.83384,21.4274 z m 21.58343,-2.06243 c 15.70466,-2.15545 29.6942,-6.99706 42.72541,-14.78674 25.36665,-15.16345 43.44895,-39.71379 50.52348,-68.59574 3.469,-14.16227 3.98589,-30.05273 1.45438,-44.71055 -5.92031,-34.27946 -27.66678,-63.67892 -58.72474,-79.39105 -11.8092,-5.97424 -23.38163,-9.49683 -37.04166,-11.27529 -5.32541,-0.69333 -20.33918,-0.69333 -25.66458,0 -10.33538,1.34561 -19.40229,3.71266 -28.6994,7.49242 -35.30881,14.35485 -60.87397,46.42149 -67.04878,84.09996 -1.10771,6.75923 -1.3547,10.12248 -1.3407,18.25625 0.0175,10.14389 0.74912,16.35514 3.02993,25.7218 2.3661,9.71691 6.25382,19.55382 11.15588,28.22721 10.71949,18.96636 27.63923,34.91723 47.17687,44.4754 13.01533,6.36733 24.26712,9.46665 40.22411,11.07978 0.58209,0.0588 4.92787,0.0721 9.65729,0.0295 6.89736,-0.0622 9.38526,-0.18546 12.57251,-0.62291 z M 184.37678,324.42217 V 317.543 h 4.36562 4.36563 v 6.87917 6.87917 h -4.36563 -4.36562 z m 7.14375,0.13229 v -5.42396 h -2.91042 -2.91042 v 5.42396 5.42396 h 2.91042 2.91042 z m 53.975,-0.13229 V 317.543 h 4.36562 4.36563 v 6.87917 6.87917 h -4.36563 -4.36562 z m 7.14375,0.13229 v -5.42396 h -2.91042 -2.91042 v 5.42396 5.42396 h 2.91042 2.91042 z m -65.74896,-14.86037 c -1.16663,-0.61642 -1.71643,-1.16229 -2.27711,-2.26086 -1.0642,-2.08511 -0.29207,-4.93104 1.69453,-6.2457 1.47823,-0.97825 3.88576,-1.01148 5.25603,-0.0725 3.21845,2.20532 3.04495,6.78007 -0.3223,8.49791 -1.23709,0.63111 -3.23965,0.66849 -4.35115,0.0812 z m 3.99305,-1.53539 c 2.03297,-1.33205 1.94638,-4.74175 -0.14793,-5.82476 -3.33812,-1.72621 -6.73616,2.12806 -4.44458,5.04133 1.10386,1.40333 3.1212,1.74747 4.59251,0.78343 z m 57.69348,1.67276 c -3.53848,-0.79507 -4.98612,-5.11524 -2.64597,-7.89635 2.12313,-2.5232 6.25576,-2.16895 7.92497,0.67934 2.15358,3.67481 -1.12082,8.15131 -5.279,7.21701 z m 2.56163,-1.64507 c 2.38927,-0.9983 2.6246,-4.59706 0.39224,-5.99815 -0.66712,-0.41871 -1.18115,-0.52335 -2.15717,-0.43915 -1.78595,0.15408 -2.85075,1.22014 -2.99964,3.00319 -0.12822,1.53552 0.25784,2.36822 1.4797,3.19164 1.02094,0.68801 2.03875,0.76314 3.28487,0.24247 z m -66.49712,-58.7736 v -17.33021 h 4.49792 4.49791 v 17.33021 17.33021 h -4.49791 -4.49792 z m 7.67292,-0.13229 v -15.875 h -3.04271 -3.04271 v 15.875 15.875 h 3.04271 3.04271 z m 52.91666,-0.26458 V 231.818 h 4.36563 4.36562 v 17.19792 17.19792 h -4.36562 -4.36563 z m 7.14375,0.13229 V 233.4055 h -2.91041 -2.91042 v 15.74271 15.74271 h 2.91042 2.91041 z m -46.20755,5.00658 c -0.58247,-0.88895 -0.23289,-1.95932 0.80189,-2.45527 0.66995,-0.3211 0.82773,-0.30387 1.44905,0.15822 0.85031,0.6324 1.01114,1.47181 0.44696,2.33285 -0.60572,0.92445 -2.08156,0.90486 -2.6979,-0.0358 z m 22.75416,0 c -0.58246,-0.88895 -0.23288,-1.95932 0.80189,-2.45527 0.66995,-0.3211 0.82773,-0.30387 1.44905,0.15822 0.85032,0.6324 1.01114,1.47181 0.44697,2.33285 -0.60572,0.92445 -2.08156,0.90486 -2.69791,-0.0358 z m -11.439,-6.98163 c -1.3328,-0.32937 -2.99825,-1.61323 -3.67081,-2.82974 -1.62648,-2.94195 -0.72646,-6.36253 2.14049,-8.13502 2.22274,-1.37422 5.50604,-0.94608 7.22145,0.94166 2.17224,2.39048 2.07231,6.52173 -0.20788,8.59376 -1.40054,1.27268 -3.69593,1.87103 -5.48325,1.42934 z m 3.83371,-1.27581 c 1.3642,-0.73404 2.74532,-3.02524 2.74532,-4.55435 0,-1.64075 -1.41155,-3.85664 -2.97015,-4.66262 -1.00039,-0.51732 -3.37217,-0.51732 -4.37255,0 -1.5586,0.80598 -2.97015,3.02187 -2.97015,4.66262 0,1.52799 1.37748,3.8145 2.74531,4.55702 1.27916,0.69437 3.52909,0.69313 4.82222,-0.003 z m -14.81084,-14.62772 c -0.83779,-0.659 -0.90639,-1.62364 -0.16798,-2.36205 1.04402,-1.04401 2.91042,-0.2871 2.91042,1.18032 0,0.73065 -0.92528,1.7301 -1.60171,1.7301 -0.24398,0 -0.75731,-0.24677 -1.14073,-0.54837 z m 1.41952,-1.15581 c 0,-0.0642 -0.11906,-0.19026 -0.26458,-0.28019 -0.14552,-0.0899 -0.26458,-0.0374 -0.26458,0.11667 0,0.15411 0.11906,0.2802 0.26458,0.2802 0.14552,0 0.26458,-0.0525 0.26458,-0.11668 z m 20.6375,1.17501 c -0.29104,-0.29104 -0.52916,-0.82682 -0.52916,-1.19062 0,-0.3638 0.23812,-0.89958 0.52916,-1.19063 0.29104,-0.29104 0.82683,-0.52916 1.19063,-0.52916 0.79978,0 1.71979,0.85567 1.71979,1.59952 0,0.69851 -1.14155,1.84006 -1.84006,1.84006 -0.29765,0 -0.77932,-0.23812 -1.07036,-0.52917 z m 1.32292,-1.32291 c 0,-0.14552 -0.0525,-0.26459 -0.11668,-0.26459 -0.0642,0 -0.19026,0.11907 -0.2802,0.26459 -0.0899,0.14552 -0.0374,0.26458 0.11668,0.26458 0.15411,0 0.2802,-0.11906 0.2802,-0.26458 z m -23.54792,-37.30625 v -16.13959 h 12.17084 12.17083 v 16.13959 16.13958 h -12.17083 -12.17084 z m 22.75417,-0.1323 V 177.843 h -10.71562 -10.71563 v 14.68437 14.68438 h 10.71563 10.71562 z m 18.69174,10.677 c -3.53848,-0.79507 -4.98612,-5.11524 -2.64597,-7.89634 2.12313,-2.52321 6.25576,-2.16896 7.92497,0.67933 2.15358,3.67482 -1.12082,8.15131 -5.279,7.21701 z m 2.56164,-1.64507 c 2.38926,-0.99829 2.62459,-4.59705 0.39223,-5.99815 -0.66712,-0.41871 -1.18115,-0.52335 -2.15717,-0.43915 -1.78595,0.15408 -2.85075,1.22014 -2.99964,3.00319 -0.12822,1.53552 0.25784,2.36822 1.4797,3.19164 1.02094,0.68801 2.03875,0.76314 3.28488,0.24247 z m -62.88664,0.85132 c -3.53848,-0.79507 -4.98612,-5.11524 -2.64597,-7.89634 2.12313,-2.52321 6.25576,-2.16896 7.92497,0.67933 2.15358,3.67482 -1.12082,8.15131 -5.279,7.21701 z m 2.56164,-1.64507 c 2.38926,-0.99829 2.62459,-4.59705 0.39223,-5.99815 -0.66712,-0.41871 -1.18115,-0.52335 -2.15717,-0.43915 -1.78595,0.15408 -2.85075,1.22014 -2.99964,3.00319 -0.12822,1.53552 0.25784,2.36822 1.4797,3.19164 1.02095,0.68801 2.03875,0.76314 3.28488,0.24247 z M 184.64136,177.843 v -6.87917 h 4.36563 4.36562 v 6.87917 6.87917 h -4.36562 -4.36563 z m 7.14375,0.13229 v -5.42396 h -2.91042 -2.91041 v 5.42396 5.42396 h 2.91041 2.91042 z m 52.91667,-0.39688 v -6.87916 h 4.36562 4.36563 v 6.87916 6.87917 h -4.36563 -4.36562 z m 7.14375,0.1323 v -5.42396 h -2.91042 -2.91042 v 5.42396 5.42396 h 2.91042 2.91042 z"
       id="path376"
       inkscape:connector-curvature="0" />
  </g>
</svg>
