<?xml version="1.0" encoding="UTF-8" standalone="no"?>
<!-- Created with Inkscape (http://www.inkscape.org/) -->

<svg
   xmlns:dc="http://purl.org/dc/elements/1.1/"
   xmlns:cc="http://creativecommons.org/ns#"
   xmlns:rdf="http://www.w3.org/1999/02/22-rdf-syntax-ns#"
   xmlns:svg="http://www.w3.org/2000/svg"
   xmlns="http://www.w3.org/2000/svg"
   xmlns:sodipodi="http://sodipodi.sourceforge.net/DTD/sodipodi-0.dtd"
   xmlns:inkscape="http://www.inkscape.org/namespaces/inkscape"
   width="233.89166mm"
   height="224.63126mm"
   viewBox="0 0 233.89166 224.63125"
   version="1.1"
   id="svg8"
   inkscape:version="0.92.3 (2405546, 2018-03-11)"
   sodipodi:docname="Suport rotire pe axa X - Sistem de rotire.svg">
  <defs
     id="defs2" />
  <sodipodi:namedview
     id="base"
     pagecolor="#ffffff"
     bordercolor="#666666"
     borderopacity="1.0"
     inkscape:pageopacity="0.0"
     inkscape:pageshadow="2"
     inkscape:zoom="0.35"
     inkscape:cx="-412.00001"
     inkscape:cy="821.64285"
     inkscape:document-units="mm"
     inkscape:current-layer="layer1"
     showgrid="false"
     inkscape:window-width="1920"
     inkscape:window-height="1017"
     inkscape:window-x="-8"
     inkscape:window-y="-8"
     inkscape:window-maximized="1" />
  <metadata
     id="metadata5">
    <rdf:RDF>
      <cc:Work
         rdf:about="">
        <dc:format>image/svg+xml</dc:format>
        <dc:type
           rdf:resource="http://purl.org/dc/dcmitype/StillImage" />
        <dc:title></dc:title>
      </cc:Work>
    </rdf:RDF>
  </metadata>
  <g
     inkscape:label="Layer 1"
     inkscape:groupmode="layer"
     id="layer1"
     transform="translate(-101.82678,-141.59508)">
    <path
       style="fill:#000000;stroke-width:0.26458332"
       d="m 212.57381,366.20938 c -14.50932,-1.02171 -28.66512,-4.84205 -41.67188,-11.24631 -6.22089,-3.06304 -14.09728,-7.8266 -15.46362,-9.35225 l -0.51467,-0.57467 4.74331,-4.7488 4.7433,-4.7488 -1.97841,-2.05247 c -1.08812,-1.12885 -3.20268,-3.30788 -4.69901,-4.84228 l -2.72061,-2.78983 4.24971,-4.22163 c 2.33734,-2.3219 4.37743,-4.26556 4.53352,-4.31924 0.1561,-0.0537 1.1647,0.7774 2.24135,1.84686 l 1.95753,1.94447 3.43716,-3.42953 3.43716,-3.42953 -2.00285,-2.01466 -2.00284,-2.01466 3.45907,-3.25818 c 1.90249,-1.79199 3.45907,-3.38992 3.45907,-3.55093 0,-0.16102 -1.30985,-1.59854 -2.91077,-3.1945 l -2.91076,-2.90174 -3.43822,3.43059 -3.43822,3.43059 -2.18383,-2.1573 -2.18383,-2.1573 -3.37343,3.25385 c -1.85539,1.78961 -3.37344,3.35525 -3.37344,3.47919 0,0.12394 0.92273,1.15798 2.05052,2.29788 l 2.05052,2.07252 -4.63021,4.46222 -4.63021,4.46221 -4.23333,-4.37026 -4.23333,-4.37027 -4.87802,4.91872 -4.87802,4.91872 -0.64361,-0.59505 c -2.24006,-2.07106 -9.00651,-13.74736 -12.22765,-21.10026 -12.98295,-29.6362 -12.13957,-64.39156 2.27285,-93.6625 3.06304,-6.22089 7.8266,-14.09728 9.35225,-15.46362 l 0.57467,-0.51467 4.74901,4.74352 4.74901,4.74351 2.18455,-2.11121 c 1.2015,-1.16116 3.38048,-3.27577 4.84217,-4.69912 l 2.65764,-2.58792 4.22153,4.24962 c 2.32184,2.33728 4.26546,4.37732 4.31914,4.53342 0.0537,0.15609 -0.7774,1.16469 -1.84686,2.24134 l -1.94447,1.95754 3.42953,3.43715 3.42953,3.43716 2.01512,-2.0033 2.01513,-2.0033 3.26688,3.45952 c 1.79679,1.90274 3.3945,3.45953 3.55047,3.45953 0.15597,0 1.58937,-1.30984 3.18533,-2.91077 l 2.90174,-2.91076 -3.43059,-3.43822 -3.43059,-3.43822 2.15563,-2.18383 2.15563,-2.18382 -3.23898,-3.37344 c -1.78144,-1.85539 -3.34633,-3.37344 -3.47753,-3.37344 -0.13119,0 -1.17163,0.92274 -2.31208,2.05052 l -2.07354,2.05052 -4.33768,-4.49791 c -2.38572,-2.47386 -4.34253,-4.60851 -4.34846,-4.74368 -0.006,-0.13517 1.90491,-2.0997 4.2463,-4.36562 l 4.25708,-4.11987 -4.91827,-4.87802 -4.91828,-4.87801 0.59505,-0.64361 c 1.58696,-1.71647 9.9863,-6.82734 16.45688,-10.01377 12.0224,-5.92042 24.29672,-9.43868 37.7163,-10.81084 5.11024,-0.52252 17.86948,-0.52499 23.01875,-0.004 13.22857,1.33728 26.11496,5.12186 38.42868,11.28607 5.70538,2.85609 13.34453,7.53214 14.60577,8.94043 l 0.51467,0.57467 -4.74351,4.74901 -4.74352,4.74902 2.11121,2.18454 c 1.16117,1.2015 3.27577,3.38048 4.69912,4.84217 l 2.58792,2.65764 -4.24961,4.22153 c -2.33729,2.32185 -4.37733,4.26546 -4.53342,4.31915 -0.1561,0.0537 -1.16467,-0.77737 -2.24127,-1.84679 l -1.95746,-1.94439 -3.30596,3.29802 c -1.81828,1.81391 -3.30596,3.41607 -3.30596,3.56035 0,0.14429 0.8426,1.11059 1.87244,2.14735 l 1.87244,1.88502 -3.45994,3.26491 c -1.90297,1.7957 -3.45994,3.39305 -3.45994,3.54967 0,0.15662 1.30985,1.59055 2.91077,3.18651 l 2.91076,2.90174 3.43822,-3.43059 3.43822,-3.43059 2.18383,2.15669 2.18383,2.1567 3.37343,-3.25208 c 1.85539,-1.78864 3.37344,-3.35401 3.37344,-3.47859 0,-0.12458 -0.92273,-1.15914 -2.05052,-2.29903 l -2.05052,-2.07253 4.63021,-4.46221 4.63021,-4.46222 4.23333,4.37027 4.23333,4.37026 4.87802,-4.91872 4.87802,-4.91872 0.65196,0.59506 c 0.7492,0.6838 4.92982,6.98851 6.71054,10.12005 14.20823,24.98614 18.30026,54.27993 11.45923,82.03371 -2.02972,8.23448 -4.52908,15.10617 -8.22332,22.60899 -3.06304,6.22089 -7.8266,14.09728 -9.35225,15.46362 l -0.57467,0.51467 -4.74856,-4.74306 -4.74857,-4.74307 -1.9114,1.84715 c -1.05127,1.01593 -1.97952,1.90668 -2.06277,1.97944 -0.0833,0.0728 -1.40231,1.35595 -2.93123,2.85153 l -2.77985,2.71923 -4.22153,-4.24961 c -2.32184,-2.33729 -4.26546,-4.37733 -4.31914,-4.53342 -0.0537,-0.1561 0.7774,-1.1647 1.84686,-2.24135 l 1.94447,-1.95753 -3.42953,-3.43716 -3.42953,-3.43716 -2.01512,2.0033 -2.01513,2.00331 -3.26688,-3.45953 c -1.79679,-1.90274 -3.3945,-3.45953 -3.55047,-3.45953 -0.15597,0 -1.58937,1.30985 -3.18533,2.91077 l -2.90174,2.91076 3.43059,3.43822 3.43059,3.43822 -2.15669,2.18383 -2.1567,2.18383 3.25208,3.37343 c 1.78865,1.8554 3.35401,3.37344 3.47859,3.37344 0.12458,0 1.15855,-0.92273 2.29771,-2.05052 l 2.07121,-2.05052 4.33893,4.49792 c 2.38641,2.47385 4.34426,4.6124 4.35079,4.75234 0.007,0.13993 -1.90398,2.10446 -4.24556,4.36562 l -4.25741,4.1112 4.91861,4.87802 4.91862,4.87802 -0.59505,0.65196 c -0.68372,0.7491 -6.98798,4.92947 -10.12005,6.71062 -19.13918,10.88413 -41.39136,16.00172 -62.97083,14.48214 z m 21.43124,-2.06823 c 17.13773,-2.33988 32.08086,-7.8467 46.23594,-17.0388 2.00091,-1.29937 3.63802,-2.43818 3.63802,-2.5307 0,-0.0925 -2.17289,-2.34696 -4.82864,-5.00987 l -4.82865,-4.84165 4.49792,-4.33063 4.49791,-4.33063 -3.30729,-3.42654 c -1.81901,-1.88459 -3.48325,-3.44348 -3.69831,-3.46418 -0.21506,-0.0207 -1.29102,0.85707 -2.39103,1.95062 l -2,1.98827 -2.89128,-2.98046 c -1.59021,-1.63925 -3.54151,-3.65991 -4.33622,-4.49034 l -1.44494,-1.50989 2.22933,-2.10011 2.22933,-2.10011 -3.37344,-3.41396 c -1.85539,-1.87769 -3.37344,-3.5324 -3.37344,-3.67714 0,-0.14474 1.76905,-1.94775 3.93122,-4.00669 l 3.93121,-3.74351 3.38778,3.42388 c 1.86328,1.88313 3.45495,3.42387 3.53704,3.42387 0.0821,0 1.01573,-0.86068 2.07475,-1.91264 l 1.92549,-1.91263 4.16615,4.33206 c 2.29138,2.38263 4.20061,4.41824 4.24272,4.52358 0.0421,0.10533 -0.76157,1.00065 -1.78594,1.98961 -1.02438,0.98895 -1.8625,1.92566 -1.8625,2.08159 0,0.36295 6.3842,6.77343 6.74566,6.77343 0.14922,0 2.41199,-2.14315 5.02837,-4.76257 l 4.75706,-4.76257 4.78887,4.78362 4.78886,4.78362 1.86147,-2.86532 c 9.24142,-14.22518 15.07718,-30.27719 17.15354,-47.18303 0.58816,-4.78883 0.8091,-16.65026 0.40079,-21.51645 -1.58925,-18.94008 -7.70613,-36.80191 -17.8206,-52.03771 -1.01436,-1.52797 -1.9501,-2.89361 -2.07943,-3.03475 -0.14523,-0.1585 -2.10891,1.61213 -5.13505,4.6302 l -4.89991,4.88684 -4.33063,-4.49791 -4.33063,-4.49792 -3.42654,3.30729 c -1.8846,1.81901 -3.44348,3.48887 -3.46418,3.71079 -0.0207,0.22192 0.85494,1.29013 1.94588,2.37379 l 1.98352,1.97029 -1.38821,1.41758 c -0.76352,0.77967 -2.78889,2.73278 -4.50081,4.34024 l -3.1126,2.92266 -2.08345,-2.21611 -2.08344,-2.21611 -3.41543,3.37343 c -1.87848,1.85539 -3.52383,3.37344 -3.65634,3.37344 -0.1325,0 -1.93265,-1.75617 -4.00032,-3.9026 l -3.7594,-3.90261 3.47851,-3.50425 3.47851,-3.50425 -1.97363,-1.98689 -1.97363,-1.98689 4.33206,-4.16615 c 2.38263,-2.29138 4.42842,-4.204 4.5462,-4.25026 0.11779,-0.0463 1.008,0.75742 1.97825,1.78594 0.97026,1.02852 1.8968,1.87004 2.05897,1.87004 0.37066,0 6.78479,-6.37714 6.78479,-6.74566 0,-0.14922 -2.14316,-2.41198 -4.76257,-5.02836 l -4.76257,-4.75706 4.78362,-4.78887 4.78362,-4.78887 -2.86532,-1.86146 c -14.14573,-9.18982 -29.21594,-14.72395 -46.49153,-17.07278 -5.83533,-0.79338 -20.16852,-0.85829 -26.0915,-0.11815 -15.13421,1.89118 -28.47585,6.17197 -41.13918,13.19991 -3.1805,1.76512 -10.18998,6.2502 -10.18998,6.52015 0,0.0925 2.17289,2.34696 4.82864,5.00987 l 4.82865,4.84165 -4.49792,4.3255 c -2.47385,2.37902 -4.43838,4.39073 -4.36562,4.47046 0.0728,0.0797 1.67387,1.70418 3.55803,3.60989 l 3.42574,3.46491 2.13543,-2.12433 2.13543,-2.12434 2.90808,2.97596 c 1.59944,1.63678 3.55748,3.66035 4.35119,4.49683 l 1.44312,1.52088 -2.23945,2.0866 -2.23945,2.08661 3.37344,3.41648 c 1.85539,1.87907 3.37426,3.52992 3.37526,3.66857 0.001,0.13864 -1.75517,1.93895 -3.9026,4.0007 l -3.90443,3.74862 -3.50425,-3.47889 -3.50425,-3.47889 -1.99101,1.97772 -1.991,1.97772 -4.16204,-4.33612 c -2.28912,-2.38487 -4.19944,-4.43117 -4.24515,-4.54734 -0.0457,-0.11617 0.75795,-1.00815 1.78593,-1.98217 1.02799,-0.97402 1.86906,-1.89354 1.86906,-2.04338 0,-0.36211 -6.37853,-6.79944 -6.73733,-6.79944 -0.1538,0 -2.42032,2.14316 -5.0367,4.76257 l -4.75706,4.76257 -4.78887,-4.78362 -4.78886,-4.78362 -1.86204,2.86532 c -9.21038,14.17301 -14.67773,29.12399 -17.06062,46.65386 -0.80835,5.94673 -0.87734,20.27423 -0.12549,26.06146 2.36517,18.20527 7.83123,33.23812 17.43708,47.95573 1.16349,1.78263 2.19002,3.24114 2.28119,3.24114 0.0912,0 2.34572,-2.17289 5.0101,-4.82864 l 4.84433,-4.82865 4.32811,4.49792 4.32811,4.49791 3.39593,-3.30729 c 1.86776,-1.81901 3.48253,-3.42635 3.58837,-3.57187 0.10584,-0.14552 -0.7563,-1.21939 -1.91588,-2.38638 l -2.10832,-2.12179 2.71158,-2.64241 c 1.49137,-1.45332 3.51061,-3.40751 4.48721,-4.34264 l 1.77563,-1.70023 2.0975,2.2311 2.09749,2.2311 3.41543,-3.37344 c 1.87848,-1.85539 3.53384,-3.37344 3.67858,-3.37344 0.14474,0 1.94775,1.76905 4.00669,3.93122 l 3.74351,3.93122 -3.42387,3.38777 c -1.88314,1.86328 -3.42388,3.45495 -3.42388,3.53704 0,0.0821 0.86218,1.01724 1.91595,2.07809 l 1.91595,1.92883 -4.33403,4.16281 c -2.38371,2.28955 -4.42082,4.19727 -4.52689,4.23938 -0.10607,0.0421 -1.002,-0.76156 -1.99095,-1.78594 -0.98896,-1.02438 -1.91733,-1.8625 -2.06306,-1.8625 -0.35705,0 -6.79197,6.38316 -6.79197,6.73734 0,0.15379 2.14316,2.42031 4.76257,5.03669 l 4.76257,4.75706 -4.78362,4.78887 -4.78362,4.78886 2.86532,1.86147 c 14.56913,9.46487 31.78521,15.60552 48.37365,17.25395 1.60073,0.15906 3.32714,0.33584 3.83646,0.39284 0.50932,0.057 4.73604,0.0658 9.39271,0.0195 6.70356,-0.0666 9.29312,-0.19694 12.43541,-0.62597 z M 178.31026,254.043 v -16.13958 h 28.44271 28.44271 v 16.13958 16.13958 h -28.44271 -28.44271 z m 55.29792,0 v -14.55208 h -26.9875 -26.9875 v 14.55208 14.55208 h 26.9875 26.9875 z m -23.54792,-62.30937 v -17.33021 h 12.17084 12.17083 v 17.33021 17.33021 H 222.2311 210.06026 Z m 22.77441,0.33073 c 0.0111,-8.47659 0.0601,-15.62034 0.10888,-15.875 0.0832,-0.43487 -0.56943,-0.46302 -10.73586,-0.46302 h -10.82451 v 15.875 15.875 h 10.71562 10.71563 l 0.0202,-15.41198 z"
       id="path389"
       inkscape:connector-curvature="0" />
  </g>
</svg>
